<?xml version="1.0" encoding="UTF-8" standalone="no"?>
<!-- Created with Inkscape (http://www.inkscape.org/) -->

<svg
   xmlns:dc="http://purl.org/dc/elements/1.1/"
   xmlns:cc="http://creativecommons.org/ns#"
   xmlns:rdf="http://www.w3.org/1999/02/22-rdf-syntax-ns#"
   xmlns:svg="http://www.w3.org/2000/svg"
   xmlns="http://www.w3.org/2000/svg"
   xmlns:sodipodi="http://sodipodi.sourceforge.net/DTD/sodipodi-0.dtd"
   xmlns:inkscape="http://www.inkscape.org/namespaces/inkscape"
   width="16"
   height="16"
   id="svg3049"
   version="1.1"
   inkscape:version="0.91 r13725"
   sodipodi:docname="mail-forward-attachment.svg"
   inkscape:export-filename="/home/uri/.kde/share/icons/NITRUX-KDE/16x16/actions/view-right-new.png"
   inkscape:export-xdpi="30"
   inkscape:export-ydpi="30"
   viewBox="0 0 16 16">
  <defs
     id="defs3051" />
  <sodipodi:namedview
     id="base"
     pagecolor="#ffffff"
     bordercolor="#666666"
     borderopacity="1.0"
     inkscape:pageopacity="0.0"
     inkscape:pageshadow="2"
     inkscape:zoom="48.822612"
     inkscape:cx="6.5201694"
     inkscape:cy="3.7427701"
     inkscape:document-units="px"
     inkscape:current-layer="layer1"
     showgrid="true"
     fit-margin-top="0"
     fit-margin-left="0"
     fit-margin-right="0"
     fit-margin-bottom="0"
     inkscape:window-width="1914"
     inkscape:window-height="1117"
     inkscape:window-x="368"
     inkscape:window-y="0"
     inkscape:window-maximized="1"
     inkscape:showpageshadow="false"
     borderlayer="true"
     inkscape:snap-bbox="true"
     inkscape:snap-global="true"
     inkscape:object-nodes="true">
    <inkscape:grid
       type="xygrid"
       id="grid4085" />
    <sodipodi:guide
       position="2.0000044,14.00003"
       orientation="12,0"
       id="guide4075" />
    <sodipodi:guide
       position="2.0000044,2.0000296"
       orientation="0,12"
       id="guide4077" />
    <sodipodi:guide
       position="14.000004,2.0000296"
       orientation="-12,0"
       id="guide4079" />
    <sodipodi:guide
       position="14.000004,14.00003"
       orientation="0,-12"
       id="guide4081" />
  </sodipodi:namedview>
  <metadata
     id="metadata3054">
    <rdf:RDF>
      <cc:Work
         rdf:about="">
        <dc:format>image/svg+xml</dc:format>
        <dc:type
           rdf:resource="http://purl.org/dc/dcmitype/StillImage" />
        <dc:title />
      </cc:Work>
    </rdf:RDF>
  </metadata>
  <g
     inkscape:label="Capa 1"
     inkscape:groupmode="layer"
     id="layer1"
     transform="translate(-421.71429,-531.79074)">
    <path
       style="fill:#f2f2f2;fill-opacity:1;fill-rule:evenodd;stroke:none"
       d="M 1,2 V 14 H 9 V 13 H 2.65625 L 6.6425781,8.3496094 8,9.7070312 c -0.013148,-0.02367 6,-6 6,-6 V 8 h 1 V 2 Z M 2.7070312,3 H 13.292969 L 8,8.2929688 Z M 2,3.7070312 5.9335938,7.640625 2,12.230469 Z"
       transform="translate(421.71429,531.79074)"
       id="rect4157"
       inkscape:connector-curvature="0"
       sodipodi:nodetypes="cccccccccccccccccccc" />
    <path
       style="fill:#f2f2f2;fill-opacity:1;stroke:none"
       d="m 437.71429,543.29074 -0.93952,-1.87891 -0.47464,-0.94921 -0.35355,0.70702 0.47465,0.94923 0.33596,0.67187 -2.0429,0 0,1 2.0429,0 -0.33596,0.67188 -0.47465,0.94921 0.35355,0.70704 0.47464,-0.94923 z"
       id="rect4176"
       inkscape:connector-curvature="0"
       sodipodi:nodetypes="cccccccccccccc" />
    <path
       style="fill:#f2f2f2;fill-opacity:1;fill-rule:evenodd;stroke:none"
       d="m 432.78486,540.21024 c -0.59173,0 -1.07142,0.46954 -1.07143,1.04875 l 0,2.53175 8.6e-4,0 c 0.008,0.34143 0.29311,0.61415 0.64202,0.6145 0.35504,0 0.64286,-0.28172 0.64286,-0.62925 l 0,-2.30725 -0.42857,0 0,2.30725 c 0,0.11584 -0.0959,0.20975 -0.21429,0.20975 -0.11835,0 -0.21429,-0.0939 -0.21429,-0.20975 l 0,-2.517 c 0,-0.34753 0.28782,-0.62925 0.64286,-0.62925 0.35504,0 0.64286,0.28172 0.64286,0.62925 l 0,2.517 c 0,0.57921 -0.4797,1.04875 -1.07143,1.04875 -0.59173,0 -1.07143,-0.46954 -1.07143,-1.04875 l 0,-2.72675 -0.42857,0 0,2.72675 c 0,0.81089 0.67157,1.46825 1.5,1.46825 0.82843,0 1.5,-0.65736 1.5,-1.46825 l 0,-2.53175 -8.6e-4,0 c -0.008,-0.57312 -0.485,-1.03361 -1.07057,-1.034 z"
       id="rect4556"
       inkscape:connector-curvature="0"
       sodipodi:nodetypes="cscccsccsssssssssccsssccc" />
  </g>
</svg>
