<?xml version="1.0" encoding="UTF-8" standalone="no"?>
<!-- Created with Inkscape (http://www.inkscape.org/) -->

<svg
   xmlns:dc="http://purl.org/dc/elements/1.1/"
   xmlns:cc="http://creativecommons.org/ns#"
   xmlns:rdf="http://www.w3.org/1999/02/22-rdf-syntax-ns#"
   xmlns:svg="http://www.w3.org/2000/svg"
   xmlns="http://www.w3.org/2000/svg"
   xmlns:sodipodi="http://sodipodi.sourceforge.net/DTD/sodipodi-0.dtd"
   xmlns:inkscape="http://www.inkscape.org/namespaces/inkscape"
   width="12"
   height="12"
   id="svg3049"
   version="1.1"
   inkscape:version="0.91 r13725"
   sodipodi:docname="tools.svg"
   inkscape:export-filename="/home/uri/.kde/share/icons/NITRUX-KDE/16x16/actions/view-right-new.png"
   inkscape:export-xdpi="30"
   inkscape:export-ydpi="30">
  <defs
     id="defs3051">
    <clipPath
       id="clipPath4160"
       clipPathUnits="userSpaceOnUse">
      <rect
         y="1023.3622"
         x="7"
         height="1"
         width="1"
         id="rect4162"
         style="opacity:1;fill:#f2f2f2;fill-opacity:1;stroke:none;stroke-opacity:1" />
    </clipPath>
    <clipPath
       clipPathUnits="userSpaceOnUse"
       id="clipPath4160-2">
      <rect
         style="opacity:1;fill:#f2f2f2;fill-opacity:1;stroke:none;stroke-opacity:1"
         id="rect4162-2"
         width="1"
         height="1"
         x="7"
         y="1023.3622" />
    </clipPath>
  </defs>
  <sodipodi:namedview
     id="base"
     pagecolor="#ffffff"
     bordercolor="#666666"
     borderopacity="1.0"
     inkscape:pageopacity="0.0"
     inkscape:pageshadow="2"
     inkscape:zoom="64"
     inkscape:cx="4.2310773"
     inkscape:cy="5.5992185"
     inkscape:document-units="px"
     inkscape:current-layer="layer1"
     showgrid="true"
     fit-margin-top="0"
     fit-margin-left="0"
     fit-margin-right="0"
     fit-margin-bottom="0"
     inkscape:window-width="1914"
     inkscape:window-height="1117"
     inkscape:window-x="0"
     inkscape:window-y="0"
     inkscape:window-maximized="1"
     inkscape:showpageshadow="false"
     borderlayer="true"
     inkscape:snap-bbox="true"
     inkscape:snap-global="true"
     inkscape:object-nodes="true">
    <inkscape:grid
       type="xygrid"
       id="grid4085"
       originx="-2.0160032"
       originy="-1.9941756" />
    <sodipodi:guide
       position="-0.015998844,12.005854"
       orientation="12,0"
       id="guide4075" />
    <sodipodi:guide
       position="-0.015998844,0.0058539978"
       orientation="0,12"
       id="guide4077" />
    <sodipodi:guide
       position="11.984001,0.0058539978"
       orientation="-12,0"
       id="guide4079" />
    <sodipodi:guide
       position="11.984001,12.005854"
       orientation="0,-12"
       id="guide4081" />
  </sodipodi:namedview>
  <metadata
     id="metadata3054">
    <rdf:RDF>
      <cc:Work
         rdf:about="">
        <dc:format>image/svg+xml</dc:format>
        <dc:type
           rdf:resource="http://purl.org/dc/dcmitype/StillImage" />
        <dc:title />
      </cc:Work>
    </rdf:RDF>
  </metadata>
  <g
     inkscape:label="Capa 1"
     inkscape:groupmode="layer"
     id="layer1"
     transform="translate(-423.73029,-533.79656)">
    <g
       style="font-style:normal;font-weight:400;font-size:13.05560017px;font-family:Oxygen-Sans;fill:#f2f2f2;fill-opacity:1;fill-rule:evenodd;stroke:#ffffff;stroke-width:1;stroke-linecap:square;stroke-linejoin:bevel;stroke-opacity:1"
       id="g18"
       font-style="normal"
       font-weight="400"
       font-size="13.0556"
       transform="matrix(0.00905685,0.00878657,-0.00905233,0.00828392,426.04434,529.0245)">
      <polyline
         style="fill:#f2f2f2;fill-opacity:1"
         id="polyline20"
         points="813.884,884 900.587,884 900.587,267.036 900.606,265.627 900.663,264.219 900.759,262.814 900.892,261.411 901.063,260.013 901.272,258.619 901.519,257.232 901.803,255.852 902.125,254.481 902.483,253.118 902.879,251.766 903.31,250.425 903.778,249.096 904.282,247.78 904.821,246.479 905.395,245.192 906.004,243.922 906.647,242.668 907.324,241.432 908.034,240.216 908.776,239.018 909.551,237.842 910.357,236.686 911.195,235.553 912.062,234.443 912.96,233.357 913.886,232.296 914.841,231.26 915.824,230.251 972.053,174.021 973.036,173.012 973.991,171.976 974.918,170.914 975.815,169.828 976.683,168.718 977.52,167.585 978.326,166.43 979.101,165.253 979.844,164.056 980.554,162.839 981.23,161.604 981.873,160.35 982.482,159.079 983.056,157.793 983.596,156.491 984.099,155.176 984.567,153.847 984.999,152.506 985.394,151.153 985.753,149.791 986.074,148.419 986.358,147.039 986.605,145.652 986.814,144.259 986.985,142.861 987.119,141.458 987.214,140.052 987.271,138.645 987.29,137.236 987.29,52.0219 987.271,50.5885 987.211,49.1562 987.113,47.726 986.975,46.2991 986.797,44.8765 986.581,43.4594 986.325,42.0488 986.031,40.6457 985.698,39.2513 985.327,37.8666 984.918,36.4926 984.472,35.1304 983.988,33.7811 983.466,32.4456 982.909,31.125 982.315,29.8202 981.685,28.5323 981.02,27.2622 980.321,26.011 979.587,24.7795 978.819,23.5686 978.019,22.3794 977.186,21.2127 976.321,20.0694 975.425,18.9504 974.498,17.8564 973.542,16.7884 972.557,15.7472 971.543,14.7335 970.502,13.7482 969.434,12.7918 968.34,11.8653 967.221,10.9693 966.078,10.1045 964.911,9.27146 963.722,8.47091 962.511,7.70344 961.279,6.96962 960.028,6.27001 958.758,5.60514 957.47,4.97552 956.165,4.38163 954.845,3.82392 953.509,3.30281 952.16,2.81869 950.798,2.37194 949.424,1.96289 948.039,1.59186 946.645,1.25912 945.242,0.964929 943.831,0.709511 942.414,0.493059 940.991,0.315738 939.564,0.177681 938.134,0.0789944 936.702,0.0197524 935.268,-6.25278e-13 900.587,-6.25278e-13 900.587,122.871 830.5,192.958 760.413,122.871 760.413,-6.25278e-13 725.732,-6.25278e-13 724.298,0.0197524 722.866,0.0789944 721.436,0.177681 720.009,0.315738 718.586,0.493059 717.169,0.709511 715.758,0.964929 714.355,1.25912 712.961,1.59186 711.576,1.96289 710.202,2.37194 708.84,2.81869 707.491,3.30281 706.155,3.82392 704.835,4.38163 703.53,4.97552 702.242,5.60514 700.972,6.27001 699.721,6.96962 698.489,7.70344 697.278,8.47091 696.089,9.27146 694.922,10.1045 693.779,10.9693 692.66,11.8653 691.566,12.7918 690.498,13.7482 689.457,14.7335 688.443,15.7472 687.458,16.7884 686.502,17.8564 685.575,18.9504 684.679,20.0694 683.814,21.2127 682.981,22.3794 682.181,23.5686 681.413,24.7795 680.679,26.011 679.98,27.2622 679.315,28.5323 678.685,29.8202 678.091,31.125 677.534,32.4456 677.012,33.7811 676.528,35.1304 676.082,36.4926 675.673,37.8666 675.302,39.2513 674.969,40.6457 674.675,42.0488 674.419,43.4594 674.203,44.8765 674.025,46.2991 673.887,47.726 673.789,49.1562 673.729,50.5885 673.71,52.0219 673.71,137.236 673.729,138.645 673.786,140.052 673.881,141.458 674.015,142.861 674.186,144.259 674.395,145.652 674.642,147.039 674.926,148.419 675.247,149.791 675.606,151.153 676.001,152.506 676.433,153.847 676.901,155.176 677.404,156.491 677.944,157.793 678.518,159.079 679.127,160.35 679.77,161.604 680.446,162.839 681.156,164.056 681.899,165.253 682.674,166.43 683.48,167.585 684.317,168.718 685.185,169.828 686.082,170.914 687.009,171.976 687.964,173.012 688.947,174.021 745.176,230.251 746.159,231.26 747.114,232.296 748.04,233.357 748.938,234.443 749.805,235.553 750.643,236.686 751.449,237.842 752.224,239.018 752.966,240.216 753.676,241.432 754.353,242.668 754.996,243.922 755.605,245.192 756.179,246.479 756.718,247.78 757.222,249.096 757.69,250.425 758.121,251.766 758.517,253.118 758.875,254.481 759.197,255.852 759.481,257.232 759.728,258.619 759.937,260.013 760.108,261.411 760.241,262.814 760.337,264.219 760.394,265.627 760.413,267.036 760.413,884 847.116,884 "
         vector-effect="non-scaling-stroke" />
    </g>
  </g>
</svg>
